# MagicaVoxel @ ephtracy

# material
mtllib guns.mtl
usemtl palette

# normals
vn -1 0 0
vn 1 0 0
vn 0 0 1
vn 0 0 -1
vn 0 -1 0
vn 0 1 0

# texcoords
vt 0.0917969 0.5
vt 0.978516 0.5
vt 0.986328 0.5
vt 0.994141 0.5

# verts
v -12 1 2
v -12 1 1
v -12 2 2
v -12 2 1
v -8 1 1
v -8 1 -0
v -8 2 1
v -8 2 -0
v -4 1 1
v -4 1 -0
v -4 2 1
v -4 2 -0
v -3 0 2
v -3 0 1
v -3 1 6
v -3 1 4
v -3 1 2
v -3 1 1
v -3 2 6
v -3 2 4
v -3 2 2
v -3 2 1
v -3 3 2
v -3 3 1
v -2 1 4
v -2 1 3
v -2 2 4
v -2 2 3
v -1 1 3
v -1 1 2
v -1 1 -0
v -1 1 -1
v -1 2 3
v -1 2 2
v -1 2 -0
v -1 2 -1
v 4 1 4
v 4 1 2
v 4 2 4
v 4 2 2
v 7 1 3
v 7 1 2
v 7 2 3
v 7 2 2
v 9 1 4
v 9 1 3
v 9 2 4
v 9 2 3
v -7 1 1
v -7 1 -0
v -7 2 1
v -7 2 -0
v -1 1 6
v -1 1 5
v -1 2 6
v -1 2 5
v 0 0 2
v 0 0 1
v 0 1 5
v 0 1 4
v 0 1 2
v 0 1 1
v 0 2 5
v 0 2 4
v 0 2 2
v 0 2 1
v 0 3 2
v 0 3 1
v 1 1 4
v 1 1 3
v 1 1 -0
v 1 1 -1
v 1 2 4
v 1 2 3
v 1 2 -0
v 1 2 -1
v 2 1 3
v 2 1 2
v 2 2 3
v 2 2 2
v 5 1 4
v 5 1 2
v 5 2 4
v 5 2 2
v 11 1 4
v 11 1 -0
v 11 2 4
v 11 2 -0
v -3 1 6
v -3 2 6
v -1 1 6
v -1 2 6
v -1 1 5
v -1 2 5
v 0 1 5
v 0 2 5
v 0 1 4
v 0 2 4
v 1 1 4
v 1 2 4
v 4 1 4
v 4 2 4
v 5 1 4
v 5 2 4
v 9 1 4
v 9 2 4
v 10 1 4
v 10 2 4
v 11 1 4
v 11 2 4
v 1 1 3
v 1 2 3
v 2 1 3
v 2 2 3
v 7 1 3
v 7 2 3
v 9 1 3
v 9 2 3
v -12 1 2
v -12 2 2
v -3 0 2
v -3 1 2
v -3 2 2
v -3 3 2
v -1 0 2
v -1 1 2
v -1 2 2
v -1 3 2
v 0 0 2
v 0 1 2
v 0 2 2
v 0 3 2
v 2 1 2
v 2 2 2
v 4 1 2
v 4 2 2
v 5 1 2
v 5 2 2
v 7 1 2
v 7 2 2
v -3 1 4
v -3 2 4
v -2 1 4
v -2 2 4
v -2 1 3
v -2 2 3
v -1 1 3
v -1 2 3
v -12 1 1
v -12 2 1
v -8 1 1
v -8 2 1
v -7 1 1
v -7 2 1
v -4 1 1
v -4 2 1
v -3 0 1
v -3 1 1
v -3 2 1
v -3 3 1
v -1 0 1
v -1 1 1
v -1 2 1
v -1 3 1
v 0 0 1
v 0 1 1
v 0 2 1
v 0 3 1
v -8 1 -0
v -8 2 -0
v -7 1 -0
v -7 2 -0
v -4 1 -0
v -4 2 -0
v -3 1 -0
v -3 2 -0
v -1 1 -0
v -1 2 -0
v 1 1 -0
v 1 2 -0
v 5 1 -0
v 5 2 -0
v 10 1 -0
v 10 2 -0
v 11 1 -0
v 11 2 -0
v -1 1 -1
v -1 2 -1
v 1 1 -1
v 1 2 -1
v -3 0 2
v -1 0 2
v 0 0 2
v -3 0 1
v -1 0 1
v 0 0 1
v -3 1 6
v -1 1 6
v -1 1 5
v 0 1 5
v -3 1 4
v -2 1 4
v 0 1 4
v 1 1 4
v 4 1 4
v 5 1 4
v 9 1 4
v 10 1 4
v 11 1 4
v -2 1 3
v -1 1 3
v 1 1 3
v 2 1 3
v 7 1 3
v 9 1 3
v -12 1 2
v -3 1 2
v -1 1 2
v 0 1 2
v 2 1 2
v 4 1 2
v 5 1 2
v 7 1 2
v -12 1 1
v -8 1 1
v -7 1 1
v -4 1 1
v -3 1 1
v -1 1 1
v 0 1 1
v -8 1 -0
v -7 1 -0
v -4 1 -0
v -3 1 -0
v -1 1 -0
v 1 1 -0
v 5 1 -0
v 10 1 -0
v 11 1 -0
v -1 1 -1
v 1 1 -1
v -3 2 6
v -1 2 6
v -1 2 5
v 0 2 5
v -3 2 4
v -2 2 4
v 0 2 4
v 1 2 4
v 4 2 4
v 5 2 4
v 9 2 4
v 10 2 4
v 11 2 4
v -2 2 3
v -1 2 3
v 1 2 3
v 2 2 3
v 7 2 3
v 9 2 3
v -12 2 2
v -3 2 2
v -1 2 2
v 0 2 2
v 2 2 2
v 4 2 2
v 5 2 2
v 7 2 2
v -12 2 1
v -8 2 1
v -7 2 1
v -4 2 1
v -3 2 1
v -1 2 1
v 0 2 1
v -8 2 -0
v -7 2 -0
v -4 2 -0
v -3 2 -0
v -1 2 -0
v 1 2 -0
v 5 2 -0
v 10 2 -0
v 11 2 -0
v -1 2 -1
v 1 2 -1
v -3 3 2
v -1 3 2
v 0 3 2
v -3 3 1
v -1 3 1
v 0 3 1

# faces
f 3/4/1 2/4/1 1/4/1
f 4/4/1 2/4/1 3/4/1
f 7/4/1 6/4/1 5/4/1
f 8/4/1 6/4/1 7/4/1
f 11/4/1 10/4/1 9/4/1
f 12/4/1 10/4/1 11/4/1
f 17/1/1 14/1/1 13/1/1
f 18/1/1 14/1/1 17/1/1
f 19/3/1 16/3/1 15/3/1
f 20/3/1 16/3/1 19/3/1
f 23/1/1 22/1/1 21/1/1
f 24/1/1 22/1/1 23/1/1
f 27/3/1 26/3/1 25/3/1
f 28/3/1 26/3/1 27/3/1
f 33/3/1 30/3/1 29/3/1
f 34/3/1 30/3/1 33/3/1
f 35/4/1 32/4/1 31/4/1
f 36/4/1 32/4/1 35/4/1
f 39/1/1 38/1/1 37/1/1
f 40/1/1 38/1/1 39/1/1
f 43/1/1 42/1/1 41/1/1
f 44/1/1 42/1/1 43/1/1
f 47/1/1 46/1/1 45/1/1
f 48/1/1 46/1/1 47/1/1
f 49/4/2 50/4/2 51/4/2
f 51/4/2 50/4/2 52/4/2
f 53/3/2 54/3/2 55/3/2
f 55/3/2 54/3/2 56/3/2
f 57/4/2 58/4/2 61/4/2
f 61/4/2 58/4/2 62/4/2
f 59/3/2 60/3/2 63/3/2
f 63/3/2 60/3/2 64/3/2
f 65/4/2 66/4/2 67/4/2
f 67/4/2 66/4/2 68/4/2
f 69/3/2 70/3/2 73/3/2
f 73/3/2 70/3/2 74/3/2
f 71/4/2 72/4/2 75/4/2
f 75/4/2 72/4/2 76/4/2
f 77/3/2 78/3/2 79/3/2
f 79/3/2 78/3/2 80/3/2
f 81/1/2 82/1/2 83/1/2
f 83/1/2 82/1/2 84/1/2
f 85/2/2 86/2/2 87/2/2
f 87/2/2 86/2/2 88/2/2
f 91/3/3 90/3/3 89/3/3
f 92/3/3 90/3/3 91/3/3
f 95/3/3 94/3/3 93/3/3
f 96/3/3 94/3/3 95/3/3
f 99/3/3 98/3/3 97/3/3
f 100/3/3 98/3/3 99/3/3
f 103/1/3 102/1/3 101/1/3
f 104/1/3 102/1/3 103/1/3
f 107/1/3 106/1/3 105/1/3
f 108/1/3 106/1/3 107/1/3
f 109/2/3 108/2/3 107/2/3
f 110/2/3 108/2/3 109/2/3
f 113/3/3 112/3/3 111/3/3
f 114/3/3 112/3/3 113/3/3
f 117/1/3 116/1/3 115/1/3
f 118/1/3 116/1/3 117/1/3
f 122/4/3 120/4/3 119/4/3
f 123/4/3 120/4/3 122/4/3
f 125/1/3 122/1/3 121/1/3
f 125/1/3 124/1/3 123/1/3
f 125/1/3 123/1/3 122/1/3
f 126/1/3 124/1/3 125/1/3
f 127/1/3 124/1/3 126/1/3
f 128/1/3 124/1/3 127/1/3
f 129/4/3 126/4/3 125/4/3
f 130/4/3 126/4/3 129/4/3
f 131/4/3 128/4/3 127/4/3
f 132/4/3 128/4/3 131/4/3
f 135/4/3 134/4/3 133/4/3
f 136/4/3 134/4/3 135/4/3
f 139/1/3 138/1/3 137/1/3
f 140/1/3 138/1/3 139/1/3
f 141/3/4 142/3/4 143/3/4
f 143/3/4 142/3/4 144/3/4
f 145/3/4 146/3/4 147/3/4
f 147/3/4 146/3/4 148/3/4
f 149/4/4 150/4/4 151/4/4
f 151/4/4 150/4/4 152/4/4
f 153/4/4 154/4/4 155/4/4
f 155/4/4 154/4/4 156/4/4
f 157/1/4 158/1/4 161/1/4
f 161/1/4 158/1/4 162/1/4
f 159/1/4 160/1/4 163/1/4
f 163/1/4 160/1/4 164/1/4
f 161/4/4 162/4/4 165/4/4
f 165/4/4 162/4/4 166/4/4
f 163/4/4 164/4/4 167/4/4
f 167/4/4 164/4/4 168/4/4
f 169/4/4 170/4/4 171/4/4
f 171/4/4 170/4/4 172/4/4
f 173/4/4 174/4/4 175/4/4
f 175/4/4 174/4/4 176/4/4
f 175/1/4 176/1/4 177/1/4
f 177/1/4 176/1/4 178/1/4
f 179/4/4 180/4/4 181/4/4
f 181/4/4 180/4/4 182/4/4
f 181/1/4 182/1/4 183/1/4
f 183/1/4 182/1/4 184/1/4
f 183/2/4 184/2/4 185/2/4
f 185/2/4 184/2/4 186/2/4
f 187/4/4 188/4/4 189/4/4
f 189/4/4 188/4/4 190/4/4
f 194/1/5 192/1/5 191/1/5
f 195/4/5 193/4/5 192/4/5
f 195/1/5 192/1/5 194/1/5
f 196/4/5 193/4/5 195/4/5
f 199/3/5 198/3/5 197/3/5
f 201/3/5 199/3/5 197/3/5
f 201/3/5 200/3/5 199/3/5
f 202/3/5 200/3/5 201/3/5
f 203/3/5 200/3/5 202/3/5
f 210/3/5 203/3/5 202/3/5
f 210/3/5 204/3/5 203/3/5
f 211/3/5 204/3/5 210/3/5
f 212/3/5 204/3/5 211/3/5
f 215/1/5 208/1/5 207/1/5
f 218/3/5 213/3/5 212/3/5
f 218/3/5 212/3/5 211/3/5
f 219/3/5 213/3/5 218/3/5
f 220/3/5 213/3/5 219/3/5
f 221/1/5 206/1/5 205/1/5
f 222/1/5 206/1/5 221/1/5
f 223/1/5 215/1/5 214/1/5
f 224/4/5 217/4/5 216/4/5
f 225/4/5 217/4/5 224/4/5
f 226/4/5 217/4/5 225/4/5
f 227/4/5 217/4/5 226/4/5
f 228/4/5 217/4/5 227/4/5
f 230/4/5 220/4/5 219/4/5
f 230/4/5 222/4/5 221/4/5
f 230/4/5 221/4/5 220/4/5
f 231/4/5 226/4/5 225/4/5
f 232/4/5 226/4/5 231/4/5
f 233/4/5 228/4/5 227/4/5
f 234/1/5 229/1/5 228/1/5
f 234/4/5 228/4/5 233/4/5
f 235/4/5 230/4/5 229/4/5
f 235/1/5 229/1/5 234/1/5
f 236/4/5 222/4/5 230/4/5
f 236/4/5 230/4/5 235/4/5
f 237/1/5 223/1/5 222/1/5
f 237/4/5 222/4/5 236/4/5
f 238/2/5 209/2/5 208/2/5
f 238/1/5 223/1/5 237/1/5
f 238/1/5 208/1/5 215/1/5
f 238/1/5 215/1/5 223/1/5
f 239/2/5 209/2/5 238/2/5
f 240/4/5 236/4/5 235/4/5
f 241/4/5 236/4/5 240/4/5
f 242/3/6 243/3/6 244/3/6
f 242/3/6 244/3/6 246/3/6
f 244/3/6 245/3/6 246/3/6
f 246/3/6 245/3/6 247/3/6
f 247/3/6 245/3/6 248/3/6
f 247/3/6 248/3/6 255/3/6
f 248/3/6 249/3/6 255/3/6
f 255/3/6 249/3/6 256/3/6
f 256/3/6 249/3/6 257/3/6
f 252/1/6 253/1/6 260/1/6
f 257/3/6 258/3/6 263/3/6
f 256/3/6 257/3/6 263/3/6
f 263/3/6 258/3/6 264/3/6
f 264/3/6 258/3/6 265/3/6
f 250/1/6 251/1/6 266/1/6
f 266/1/6 251/1/6 267/1/6
f 259/1/6 260/1/6 268/1/6
f 261/4/6 262/4/6 269/4/6
f 269/4/6 262/4/6 270/4/6
f 270/4/6 262/4/6 271/4/6
f 271/4/6 262/4/6 272/4/6
f 272/4/6 262/4/6 273/4/6
f 264/4/6 265/4/6 275/4/6
f 266/4/6 267/4/6 275/4/6
f 265/4/6 266/4/6 275/4/6
f 270/4/6 271/4/6 276/4/6
f 276/4/6 271/4/6 277/4/6
f 272/4/6 273/4/6 278/4/6
f 273/1/6 274/1/6 279/1/6
f 278/4/6 273/4/6 279/4/6
f 274/4/6 275/4/6 280/4/6
f 279/1/6 274/1/6 280/1/6
f 275/4/6 267/4/6 281/4/6
f 280/4/6 275/4/6 281/4/6
f 267/1/6 268/1/6 282/1/6
f 281/4/6 267/4/6 282/4/6
f 253/2/6 254/2/6 283/2/6
f 282/1/6 268/1/6 283/1/6
f 260/1/6 253/1/6 283/1/6
f 268/1/6 260/1/6 283/1/6
f 283/2/6 254/2/6 284/2/6
f 280/4/6 281/4/6 285/4/6
f 285/4/6 281/4/6 286/4/6
f 287/1/6 288/1/6 290/1/6
f 288/4/6 289/4/6 291/4/6
f 290/1/6 288/1/6 291/1/6
f 291/4/6 289/4/6 292/4/6
